<svg width="132" height="133" xmlns="http://www.w3.org/2000/svg" xmlns:xlink="http://www.w3.org/1999/xlink" overflow="hidden"><defs><clipPath id="clip0"><rect x="1828" y="392" width="132" height="133"/></clipPath></defs><g clip-path="url(#clip0)" transform="translate(-1828 -392)"><path d="M1841 458.503C1841 428.963 1864.74 405.003 1894 405.003 1923.27 405.003 1947 428.963 1947 458.503 1947 488.043 1923.27 512.003 1894 512.003 1864.74 512.003 1841 488.043 1841 458.503Z" stroke="#FFFFFF" stroke-width="1.61535" stroke-miterlimit="8" fill="#FFFFFF" fill-rule="evenodd"/><path d="M1876.69 430.676C1876.69 430.676 1909.34 430.303 1916.32 430.676 1923.29 431.049 1925.04 437.142 1925.04 437.142L1927.28 452.313C1927.28 452.313 1933.51 454.179 1933.51 456.914 1933.51 459.65 1933.51 470.718 1933.51 471.464 1933.51 472.085 1930.64 474.324 1930.64 474.324L1930.64 484.023C1930.64 484.023 1929.52 486.51 1924.91 486.51 1920.3 486.51 1918.56 484.023 1918.56 484.023L1918.56 474.945C1918.56 474.945 1901.11 475.318 1893.27 475.318 1885.42 475.318 1869.97 474.821 1869.97 474.821L1869.97 484.023C1869.97 484.023 1868.47 486.51 1864.61 486.51 1860.87 486.51 1858.63 484.396 1858.63 484.023 1858.63 483.774 1858.63 474.324 1858.63 474.324L1856.51 472.334C1856.51 472.334 1856.51 456.417 1856.51 455.049 1856.51 453.681 1861.87 451.194 1861.87 451.194 1861.87 451.194 1862.37 443.733 1864.61 436.645 1866.98 429.432 1876.69 430.676 1876.69 430.676ZM1876.44 436.148C1863.49 436.023 1866.35 448.21 1867.35 448.458 1870.84 449.578 1918.56 449.08 1920.68 448.583 1922.67 448.085 1924.91 436.521 1913.95 436.148 1902.98 435.774 1876.69 436.148 1876.44 436.148ZM1859.5 459.899C1859.5 462.386 1861.99 464.251 1865.11 464.251 1868.22 464.251 1870.71 462.386 1870.71 459.899 1870.71 457.536 1868.22 455.671 1865.11 455.671 1861.99 455.671 1859.5 457.536 1859.5 459.899ZM1918.06 459.899C1918.06 462.386 1920.55 464.251 1923.54 464.251 1926.66 464.251 1929.15 462.386 1929.15 459.899 1929.15 457.536 1926.66 455.671 1923.54 455.671 1920.55 455.671 1918.06 457.536 1918.06 459.899ZM1875.95 459.401C1875.2 459.401 1874.7 459.899 1874.7 460.521 1874.7 461.018 1875.2 461.515 1875.95 461.515L1912.7 461.515C1913.45 461.515 1914.07 461.018 1914.07 460.521 1914.07 459.899 1913.45 459.401 1912.7 459.401L1875.95 459.401ZM1875.95 464.251C1875.2 464.251 1874.7 464.749 1874.7 465.37 1874.7 465.868 1875.2 466.365 1875.95 466.365L1912.7 466.365C1913.45 466.365 1914.07 465.868 1914.07 465.37 1914.07 464.749 1913.45 464.251 1912.7 464.251L1875.95 464.251ZM1875.95 469.225C1875.2 469.225 1874.7 469.598 1874.7 470.22 1874.7 470.718 1875.2 471.215 1875.95 471.215L1912.7 471.215C1913.45 471.215 1914.07 470.718 1914.07 470.22 1914.07 469.598 1913.45 469.225 1912.7 469.225L1875.95 469.225Z" stroke="#3E3938" stroke-width="3.4375" stroke-miterlimit="8" fill="#3E3938" fill-rule="evenodd"/><path d="M1894 392C1857.5 392 1828 422.048 1828 458.5 1828 495.281 1857.5 525.001 1894 525.001 1930.18 525.001 1960 495.281 1960 458.5 1960 422.048 1930.5 392 1894 392ZM1843.48 458.5C1843.48 447.499 1847.23 436.826 1853.26 428.452L1923.82 499.55C1915.51 505.953 1905.24 509.402 1894 509.402 1866.13 509.402 1843.48 486.578 1843.48 458.5ZM1934.74 488.549 1864.18 417.451C1872.49 411.376 1882.76 407.599 1894 407.599 1921.87 407.599 1944.52 430.423 1944.52 458.5 1944.52 469.83 1940.77 480.174 1934.74 488.549Z" fill="#E91C24" fill-rule="evenodd"/></g></svg>